Results
version=1
nRows=24
nColumns=24
inDegrees=yes
endheader
time	pelvis_tilt	pelvis_list	pelvis_rotation	pelvis_tx	pelvis_ty	pelvis_tz	hip_flexion_r	hip_adduction_r	hip_rotation_r	knee_angle_r	ankle_angle_r	subtalar_angle_r	mtp_angle_r	hip_flexion_l	hip_adduction_l	hip_rotation_l	knee_angle_l	ankle_angle_l	subtalar_angle_l	mtp_angle_l	lumbar_extension	lumbar_bending	lumbar_rotation
      0.86700000	     -9.89520861	     -0.85604092	     -4.46971144	     -0.12518447	      0.88682287	      0.33298109	     -5.25508135	      4.81022484	      0.72760204	     -9.68946292	     15.48911820	      5.16650438	      7.58784395	     36.61495569	     -2.99052373	     -9.96914366	    -13.96439868	      1.71459222	     -2.66949886	      1.94635746	      2.12286948	      1.61896637	     11.31237010
      0.87116667	     -9.98212664	     -0.80198871	     -4.60380988	     -0.11933802	      0.88539077	      0.33286666	     -5.29955742	      4.67436934	      0.70912313	    -10.25673055	     15.76051824	      5.53296582	      8.29767004	     36.68908329	     -2.91578190	     -9.63360207	    -13.70737388	      1.62291318	     -2.85403801	      1.92998956	      2.23066273	      1.51986703	     11.51316067
      0.87533333	    -10.11325870	     -0.77496892	     -4.71582562	     -0.11344458	      0.88391405	      0.33281969	     -5.32931598	      4.59710340	      0.85901539	    -10.76613587	     15.93272829	      5.54783381	      8.40855927	     36.84291204	     -2.88627708	     -9.36547332	    -13.63417983	      1.57489941	     -2.80110431	      1.93469618	      2.44930254	      1.45165136	     11.54718608
      0.87950000	    -10.25618156	     -0.71999806	     -4.83102092	     -0.10756597	      0.88245122	      0.33272415	     -5.28889575	      4.47589951	      0.92038187	    -11.38265268	     16.12571715	      5.76751293	      8.60083813	     37.00914487	     -2.82232900	     -9.05908958	    -13.66611503	      1.47195002	     -2.93203425	      1.94787808	      2.64831728	      1.35134714	     11.64629242
      0.88366667	    -10.37898367	     -0.64909818	     -4.92908914	     -0.10164245	      0.88106835	      0.33259136	     -5.23776939	      4.33126782	      0.93141783	    -12.06880103	     16.31462889	      6.04468413	      8.86236717	     37.13543671	     -2.72703818	     -8.72963109	    -13.75874203	      1.32921461	     -3.13220538	      1.97531248	      2.83395697	      1.21819207	     11.73125439
      0.88783333	    -10.47132284	     -0.57081985	     -5.00959739	     -0.09568741	      0.87978776	      0.33239586	     -5.18484969	      4.16615179	      0.85982486	    -12.82016472	     16.41727432	      6.39403812	      9.33046300	     37.21687140	     -2.60616309	     -8.39095526	    -13.91691581	      1.15129525	     -3.40643348	      2.04256828	      2.99031596	      1.10659165	     11.80005509
      0.89200000	    -10.56646958	     -0.46946945	     -5.06248395	     -0.08968143	      0.87854603	      0.33220975	     -5.12985984	      3.98817712	      0.84638868	    -13.56047166	     16.42059654	      6.48650108	     13.24983780	     37.31349264	     -2.45830927	     -8.08620385	    -14.19129909	      0.92447219	     -3.66602508	      2.75949988	      3.15400463	      0.91642031	     11.79285787
      0.89616667	    -10.69030437	     -0.39478568	     -5.12868095	     -0.08371802	      0.87728920	      0.33203708	     -4.99558475	      3.84034359	      0.85856590	    -14.40741019	     16.49884978	      6.69402652	     13.30290992	     37.47717913	     -2.35755026	     -7.85333094	    -14.63382524	      0.81851720	     -3.84069231	      2.77955764	      3.34493714	      0.77803661	     11.79735631
      0.90033333	    -10.79834856	     -0.29103323	     -5.16858397	     -0.07770629	      0.87612650	      0.33178202	     -4.83772571	      3.64752481	      0.77717576	    -15.33102158	     16.52781186	      6.99647127	     13.40902525	     37.60157585	     -2.20094980	     -7.59481628	    -15.09357812	      0.61256111	     -4.14019628	      2.81296311	      3.53152533	      0.60076641	     11.78619620
      0.90450000	    -10.89652940	     -0.18249880	     -5.19440902	     -0.07167216	      0.87503807	      0.33149582	     -4.66073526	      3.44493271	      0.68229664	    -16.30874675	     16.50652418	      7.29446981	     13.55895469	     37.71760902	     -2.03131519	     -7.35311983	    -15.62531661	      0.41636547	     -4.47127248	      2.85675008	      3.70741379	      0.41781034	     11.74805579
      0.90866667	    -10.93450007	     -0.05897711	     -5.18003775	     -0.06560276	      0.87410603	      0.33109172	     -4.51475838	      3.20334271	      0.47347474	    -17.34846640	     16.45017489	      7.73828199	     13.98949098	     37.75614186	     -1.80684807	     -7.07444737	    -16.17465704	      0.15666559	     -4.93229716	      2.97912662	      3.79626324	      0.21707398	     11.69406351
      0.91283333	    -11.05096440	      0.04618773	     -5.19272843	     -0.05955411	      0.87312186	      0.33079952	     -4.25228602	      3.00915921	      0.43310379	    -18.44255437	     16.26628342	      7.90119970	     14.18619139	     37.90844223	     -1.64949682	     -6.92873869	    -16.85529395	      0.04493967	     -5.16969875	      3.03223483	      4.00705861	      0.01759073	     11.60687984
      0.91700000	    -11.09965513	      0.16158716	     -5.16629403	     -0.05349272	      0.87232528	      0.33035475	     -4.02035966	      2.77058143	      0.24951106	    -19.59719393	     15.95510378	      8.20672090	     18.32415980	     37.95908527	     -1.42761423	     -6.68118823	    -17.49430754	     -0.21553865	     -5.72960439	      4.09550405	      4.11254379	     -0.15982543	     11.51490715
      0.92116667	    -11.17175324	      0.28533386	     -5.13082362	     -0.04740632	      0.87153429	      0.32995188	     -3.72436173	      2.53017806	      0.09091467	    -20.83477284	     15.68332385	      8.50736260	     18.38844272	     38.07075693	     -1.23115811	     -6.60657164	    -18.26347881	     -0.23708654	     -5.87367100	      4.11749394	      4.27051499	     -0.39922121	     11.38584188
      0.92533333	    -11.21310210	      0.40571176	     -5.07205703	     -0.04135874	      0.87086980	      0.32944219	     -3.40442263	      2.27090908	     -0.14246678	    -22.17082936	     15.40676443	      8.92312431	     18.57628526	     38.13295112	     -1.00601075	     -6.46692558	    -19.00799032	     -0.35800162	     -6.19167498	      4.15689053	      4.36658844	     -0.58580773	     11.23102326
      0.92950000	    -11.25548073	      0.53192250	     -5.01009284	     -0.03530027	      0.87029541	      0.32894031	     -3.05005349	      2.00420032	     -0.34179819	    -23.54983463	     14.98623123	      9.26439616	     18.80552214	     38.18991613	     -0.78130960	     -6.36436530	    -19.77240644	     -0.38362079	     -6.47545158	      4.19822722	      4.47614041	     -0.80563294	     11.06824267
      0.93366667	    -11.21784831	      0.69931480	     -4.93244548	     -0.02920834	      0.86994353	      0.32835725	     -2.74040173	      1.65942427	     -0.60779285	    -24.98708979	     14.50617718	      9.75522010	     19.78123174	     38.11739124	     -0.48480506	     -6.22480582	    -20.46182913	     -0.39901043	     -6.92424219	      4.34421957	      4.47209572	     -1.08840667	     10.84764044
      0.93783333	    -11.28621031	      0.79980596	     -4.84850680	     -0.02319156	      0.86948934	      0.32786348	     -2.28732751	      1.42581924	     -0.75174576	    -26.45922899	     13.84970806	      9.94060834	     19.98040337	     38.21414024	     -0.30150998	     -6.19978907	    -21.29160763	     -0.27428328	     -6.99315417	      4.37652142	      4.61808187	     -1.30407403	     10.71075407
      0.94200000	    -11.28604017	      0.94894758	     -4.75504448	     -0.01719742	      0.86923729	      0.32724549	     -1.83688383	      1.09314373	     -1.00679284	    -28.03268300	     13.12044626	     10.23632844	     24.26242591	     38.17984297	     -0.03093186	     -6.11000056	    -21.99133156	     -0.28595706	     -7.38148591	      4.85675972	      4.66380592	     -1.53148855	     10.46068846
      0.94616667	    -11.26687851	      1.07680101	     -4.63934169	     -0.01119552	      0.86906121	      0.32664787	     -1.38117507	      0.78249353	     -1.25683681	    -29.65052063	     12.40335233	     10.60380153	     24.33777436	     38.14325505	      0.19794179	     -6.12010618	    -22.76045338	     -0.00273857	     -7.33818759	      4.87639545	      4.68404783	     -1.75898829	     10.29212944
      0.95033333	    -11.24264443	      1.22369877	     -4.52704055	     -0.00523941	      0.86899038	      0.32603168	     -0.87979640	      0.43776998	     -1.50107074	    -31.32937624	     11.60234040	     10.94549725	     24.47151202	     38.06877417	      0.45058637	     -6.11411424	    -23.46075523	      0.22267212	     -7.42178785	      4.89445018	      4.69441975	     -2.01220021	     10.07084233
      0.95450000	    -11.20266693	      1.38039121	     -4.40625631	      0.00068918	      0.86902597	      0.32540411	     -0.35445376	      0.07141018	     -1.74866534	    -33.05387412	     10.71155500	     11.26983526	     24.64710365	     37.95024430	      0.71692383	     -6.10740869	    -24.10815150	      0.48453646	     -7.49119583	      4.91315409	      4.68388302	     -2.27493094	      9.84141280
      0.95866667	    -11.12346595	      1.54854992	     -4.28244746	      0.00657910	      0.86919768	      0.32473326	      0.17104793	     -0.32899545	     -2.00826454	    -34.82199775	      9.76491622	     11.65246293	     25.34382274	     37.75393225	      1.00991673	     -6.06790016	    -24.68473343	      0.81043210	     -7.64413187	      4.95391418	      4.60581757	     -2.53955332	      9.51764036
      0.96283333	    -11.06200686	      1.71001666	     -4.14956199	      0.01244243	      0.86944191	      0.32413448	      0.73856238	     -0.70355846	     -2.21692749	    -36.58916804	      8.62992545	     11.78764436	     25.44193304	     37.55987427	      1.27442927	     -6.08699191	    -25.22991169	      1.13159488	     -7.55653395	      4.96945837	      4.55809580	     -2.84281168	      9.38955977
